PathFileType	4	(X/Y/Z)	Patient4_TMGait_0pt4_01_right_23.trc.trc
DataRate	CameraRate	NumFrames	NumMarkers	Units	OrigDataRate	OrigDataStartFrame	OrigNumFrames
76.086956521739	76.086956521739	4	33	mm	76.086956521739	53	       141
Frame#	Time	Sacral			L.Shoulder			Chest			R.Shoulder			Neck			R.ASIS			L.ASIS			R.Thigh.Superior			R.Thigh.Lateral			R.Thigh.Inferior			R.Patella			L.Thigh.Superior			L.Thigh.Lateral			L.Thigh.Inferior			L.Patella			L.Shank.Superior			L.Shank.Lateral			L.Shank.Inferior			R.Shank.Superior			R.Shank.Lateral			R.Shank.Inferior			R.Heel			R.Midfoot.Superior			R.Midfoot.Lateral			R.Toe			L.Heel			L.Midfoot.Lateral			L.Midfoot.Superior			L.Toe			L.Elbow			L.Wrist			R.Elbow			R.Wrist			
		X1	Y1	Z1	X2	Y2	Z2	X3	Y3	Z3	X4	Y4	Z4	X5	Y5	Z5	X6	Y6	Z6	X7	Y7	Z7	X8	Y8	Z8	X9	Y9	Z9	X10	Y10	Z10	X11	Y11	Z11	X12	Y12	Z12	X13	Y13	Z13	X14	Y14	Z14	X15	Y15	Z15	X16	Y16	Z16	X17	Y17	Z17	X18	Y18	Z18	X19	Y19	Z19	X20	Y20	Z20	X21	Y21	Z21	X22	Y22	Z22	X23	Y23	Z23	X24	Y24	Z24	X25	Y25	Z25	X26	Y26	Z26	X27	Y27	Z27	X28	Y28	Z28	X29	Y29	Z29	X30	Y30	Z30	X31	Y31	Z31	X32	Y32	Z32	X33	Y33	Z33	

53	30.243428571429	823.666834333299	1003.682521037204	510.578390901195	981.925066587828	1429.745249574959	305.077981791183	1098.236635804798	1367.669059636197	459.472773967256	1027.723408252349	1448.858896877724	635.956866411738	988.172633427315	1497.021061880876	459.463790788322	1060.533197023887	944.169108990352	613.171746223539	1027.992107165541	966.743631680295	340.677858106960	1093.563719916055	738.696384032264	581.702561042047	1008.692139857290	631.738769445458	643.916140185709	1080.389974795295	576.977828520550	561.061295974870	1075.361417992748	489.691584710814	564.716867635208	1118.616264152960	788.721801236640	365.705096560010	1077.879898646471	660.407797034907	285.751146954645	1187.300774841706	603.668485560827	340.037246232232	1204.294818194065	515.582203379272	332.223026195336	1142.682221260603	444.401616866012	326.318652341792	1003.367851799433	392.255578407841	281.122538589052	1002.630103317860	261.492553864157	334.482829380263	1044.207411208929	401.734954862529	571.998455663428	971.653272077283	301.553527530948	637.083997992420	1003.394190304347	205.059928823832	570.407176867020	859.637457517168	43.712896972797	548.908795626765	1032.843057549427	96.617196782185	576.387941357256	945.887230081807	37.398919016688	619.699279978669	1153.814436361080	41.937314083490	599.740017279432	819.158021524771	188.525555679782	377.876064585573	874.848135244655	143.281343339764	296.221328625848	980.471305302783	155.117241403940	313.823931445319	1060.169112513450	44.053480621753	284.267854166531	933.937061112388	1077.734832104396	199.938198507634	1019.046950865492	831.157553082905	168.697782903690	1049.956502606739	1115.423829655390	786.955604454128	1257.851524612597	974.426755298028	732.135863178288	
54	30.256571428571	822.709137870978	1004.927560469807	512.525563008980	980.704825713833	1430.497984281119	306.419151771556	1098.237274081377	1367.818186382454	459.619346461699	1029.926758724331	1449.266879288613	636.811186545192	988.598239555653	1497.580346113598	460.695712664210	1059.774369215449	944.127282692485	613.353594650044	1025.522489367439	967.821408620591	341.126567482183	1090.419083708380	738.132625151757	581.353712101068	1004.946378506814	631.945773280124	644.132341403562	1075.515477226532	576.524178190898	560.851283191818	1069.733565052769	489.637668609843	564.403700426553	1117.237739323251	791.817485408588	366.184734635616	1077.718114482761	662.936842173700	286.298333647223	1188.075208117342	607.675213297752	340.198296450860	1206.727253222983	520.405863895239	332.352183982614	1147.790929954417	447.914934664859	326.371062710430	1010.900045493162	389.831333222679	281.680731697629	1016.694564973721	258.991690221023	334.284733345282	1038.687675698845	401.842409712035	571.945524203670	966.266004524046	301.640204909126	637.146281760271	997.985998173448	205.193304479294	570.438151961104	854.289078009029	43.695982384567	548.986511113222	1027.525838107058	96.632527016035	576.428914687438	940.546451902286	37.382722658487	619.777315253574	1148.451543672408	42.013861696364	599.775222717847	837.669132361022	176.352463942896	378.511208066924	894.928313275277	135.106320526246	295.955601727000	999.644358476178	152.370715716171	313.028127478270	1084.717512096855	46.377925691959	281.645434535400	928.472331120760	1078.749973470818	202.307552876413	1007.228551332093	830.307283104325	170.291779654268	1058.505942239800	1115.814129812767	786.470942768450	1269.520394216345	982.107117982662	727.116400267405	
55	30.269714285714	821.769055762559	1006.166673781798	514.296793152524	979.533671853369	1431.204771855765	307.660188701252	1098.275209066810	1367.918945462861	459.653881972112	1032.169631158908	1449.627639187270	637.515283114944	989.029188402671	1498.085072478724	461.808221539070	1059.040668413940	944.021092879468	613.355048890050	1023.093263921687	968.862831013778	341.403151376219	1087.159219293814	737.534665818947	580.745161318084	1001.180592205561	632.155160904083	644.284053696056	1070.513387828324	576.058975586383	560.524658507896	1063.998202214007	489.589952641552	564.076390138058	1115.462752316120	794.399920167861	366.578955509437	1076.982459801127	665.043957408234	286.768140166951	1187.866176723093	610.921339369826	340.657685074340	1208.055658932911	524.704284001833	332.694721416489	1152.158349002665	451.042463159284	326.473913714294	1018.449440337466	386.309490167059	282.026548239080	1031.536610536766	255.703614021177	333.840545232579	1033.082723466972	401.952986841701	571.888841949142	960.815959073754	301.706899432091	637.203927072246	992.517901625119	205.320597451677	570.471107380273	848.919765231163	43.662801735493	549.046807847997	1022.188544252335	96.640347984376	576.463681270474	935.198509495498	37.356877502968	619.851287779251	1143.081894933120	42.093299428583	599.796734320070	857.922574604218	162.564932760709	378.630142411078	916.864336625305	125.678254777412	295.292810940275	1020.298356709087	148.906551297203	311.963754034403	1111.133514993642	48.867916715016	278.980413194887	923.040670042565	1079.808518461481	204.499303721359	995.767982378182	829.755438915910	171.831228336986	1066.751566917361	1116.192915852945	785.605331286791	1280.560905402609	989.800876195878	721.769360066311	
56	30.282857142857	820.842407868834	1007.328994580391	515.889488212557	978.411042236861	1431.809429908137	308.788661263318	1098.341413128017	1367.915588226255	459.573057750697	1034.417532928137	1449.871603124830	638.068299830721	989.461813164056	1498.483401007250	462.798719954129	1058.333766017813	943.825070271010	613.178228034245	1020.731481394996	969.775258976498	341.503643020729	1083.854038894591	736.898039552952	579.938980447485	997.468459151655	632.332815664642	644.399006341224	1065.491220326039	575.573209774930	560.128369999484	1058.270392275877	489.522221933423	563.780123579123	1113.339059542922	796.383681780726	366.920759928995	1075.787283331926	666.671177566988	287.136111791766	1186.750573999513	613.325009504119	341.464648016588	1208.375466602324	528.395268367567	333.272669809655	1155.807657589624	453.753683972142	326.646147898906	1026.065442846046	381.908156727661	282.118287304260	1046.955606500918	251.934006034727	333.186876270050	1027.484693724974	402.031716651612	571.850920236436	955.369244008899	301.733868472108	637.273055937494	987.031358432189	205.414637755638	570.512442733403	843.537364853650	43.612597917772	549.095355636584	1016.834022948767	96.637423604051	576.494923173415	929.848155399689	37.321925763389	619.923340533527	1137.710141571033	42.168509216268	599.809205762878	879.674506262117	147.878264465129	378.192728438445	940.360723938566	115.586577604263	294.261529732078	1042.090792111314	145.098548485541	310.717408278545	1138.823446182014	51.676636875518	276.489129344044	917.662131110542	1080.842103034825	206.519372639523	984.733338028244	829.422809342654	173.296138521676	1074.672140271498	1116.491767794537	784.402181281409	1290.955946430838	997.421886082535	716.135500294973	
